<svg width="38" height="38" viewBox="0 0 38 38" fill="none" xmlns="http://www.w3.org/2000/svg">
<path d="M8.78734 27.9061C10.4498 26.8505 12.0925 26.0523 13.7155 25.5113C15.3384 24.9703 17.0998 24.6998 18.9998 24.6998C20.8998 24.6998 22.6679 24.9703 24.304 25.5113C25.9401 26.0523 27.5894 26.8505 29.2519 27.9061C30.413 26.4811 31.2377 25.0429 31.7259 23.5915C32.2141 22.1401 32.4582 20.6096 32.4582 18.9998C32.4582 15.1735 31.1717 11.9738 28.5988 9.40088C26.0259 6.82796 22.8262 5.5415 18.9998 5.5415C15.1735 5.5415 11.9738 6.82796 9.40088 9.40088C6.82796 11.9738 5.5415 15.1735 5.5415 18.9998C5.5415 20.6096 5.7922 22.1401 6.29359 23.5915C6.79498 25.0429 7.62623 26.4811 8.78734 27.9061ZM18.9998 20.1873C17.4693 20.1873 16.1828 19.6662 15.1405 18.6238C14.0981 17.5814 13.5769 16.295 13.5769 14.7644C13.5769 13.2339 14.0981 11.9474 15.1405 10.905C16.1828 9.86269 17.4693 9.34151 18.9998 9.34151C20.5304 9.34151 21.8169 9.86269 22.8592 10.905C23.9016 11.9474 24.4228 13.2339 24.4228 14.7644C24.4228 16.295 23.9016 17.5814 22.8592 18.6238C21.8169 19.6662 20.5304 20.1873 18.9998 20.1873ZM18.9998 34.8332C16.7832 34.8332 14.7116 34.4176 12.7853 33.5863C10.8589 32.7551 9.18317 31.6203 7.75817 30.1821C6.33317 28.7439 5.21164 27.0617 4.39359 25.1353C3.57553 23.2089 3.1665 21.1505 3.1665 18.9603C3.1665 16.7964 3.58213 14.7512 4.41338 12.8248C5.24463 10.8985 6.37935 9.22276 7.81755 7.79776C9.25574 6.37276 10.938 5.24463 12.8644 4.41338C14.7908 3.58213 16.8491 3.1665 19.0394 3.1665C21.2033 3.1665 23.2485 3.58213 25.1748 4.41338C27.1012 5.24463 28.7769 6.37276 30.2019 7.79776C31.6269 9.22276 32.7551 10.8985 33.5863 12.8248C34.4176 14.7512 34.8332 16.8096 34.8332 18.9998C34.8332 21.1637 34.4176 23.2089 33.5863 25.1353C32.7551 27.0617 31.6269 28.7439 30.2019 30.1821C28.7769 31.6203 27.1012 32.7551 25.1748 33.5863C23.2485 34.4176 21.1901 34.8332 18.9998 34.8332Z" fill="url(#paint0_linear_1_930)"/>
<path d="M8.78734 27.9061C10.4498 26.8505 12.0925 26.0523 13.7155 25.5113C15.3384 24.9703 17.0998 24.6998 18.9998 24.6998C20.8998 24.6998 22.6679 24.9703 24.304 25.5113C25.9401 26.0523 27.5894 26.8505 29.2519 27.9061C30.413 26.4811 31.2377 25.0429 31.7259 23.5915C32.2141 22.1401 32.4582 20.6096 32.4582 18.9998C32.4582 15.1735 31.1717 11.9738 28.5988 9.40088C26.0259 6.82796 22.8262 5.5415 18.9998 5.5415C15.1735 5.5415 11.9738 6.82796 9.40088 9.40088C6.82796 11.9738 5.5415 15.1735 5.5415 18.9998C5.5415 20.6096 5.7922 22.1401 6.29359 23.5915C6.79498 25.0429 7.62623 26.4811 8.78734 27.9061ZM18.9998 20.1873C17.4693 20.1873 16.1828 19.6662 15.1405 18.6238C14.0981 17.5814 13.5769 16.295 13.5769 14.7644C13.5769 13.2339 14.0981 11.9474 15.1405 10.905C16.1828 9.86269 17.4693 9.34151 18.9998 9.34151C20.5304 9.34151 21.8169 9.86269 22.8592 10.905C23.9016 11.9474 24.4228 13.2339 24.4228 14.7644C24.4228 16.295 23.9016 17.5814 22.8592 18.6238C21.8169 19.6662 20.5304 20.1873 18.9998 20.1873ZM18.9998 34.8332C16.7832 34.8332 14.7116 34.4176 12.7853 33.5863C10.8589 32.7551 9.18317 31.6203 7.75817 30.1821C6.33317 28.7439 5.21164 27.0617 4.39359 25.1353C3.57553 23.2089 3.1665 21.1505 3.1665 18.9603C3.1665 16.7964 3.58213 14.7512 4.41338 12.8248C5.24463 10.8985 6.37935 9.22276 7.81755 7.79776C9.25574 6.37276 10.938 5.24463 12.8644 4.41338C14.7908 3.58213 16.8491 3.1665 19.0394 3.1665C21.2033 3.1665 23.2485 3.58213 25.1748 4.41338C27.1012 5.24463 28.7769 6.37276 30.2019 7.79776C31.6269 9.22276 32.7551 10.8985 33.5863 12.8248C34.4176 14.7512 34.8332 16.8096 34.8332 18.9998C34.8332 21.1637 34.4176 23.2089 33.5863 25.1353C32.7551 27.0617 31.6269 28.7439 30.2019 30.1821C28.7769 31.6203 27.1012 32.7551 25.1748 33.5863C23.2485 34.4176 21.1901 34.8332 18.9998 34.8332Z" fill="black" fill-opacity="0.7"/>
<defs>
<linearGradient id="paint0_linear_1_930" x1="10.0997" y1="3.16651" x2="34.0292" y2="6.90094" gradientUnits="userSpaceOnUse">
<stop stop-color="#C28ECC"/>
<stop offset="1" stop-color="#94A2CC"/>
</linearGradient>
</defs>
</svg>
