<svg width="38" height="38" viewBox="0 0 38 38" fill="none" xmlns="http://www.w3.org/2000/svg">
<path d="M17.7008 30.694L15.8257 28.9604C12.9011 26.2481 10.3657 23.6596 8.21941 21.1949C6.07314 18.7302 5 16.1535 5 13.4648C5 11.3421 5.71346 9.5673 7.14038 8.14038C8.5673 6.71346 10.3303 6 12.4294 6C13.6323 6 14.8233 6.28892 16.0026 6.86676C17.1819 7.44461 18.2314 8.39392 19.1513 9.71471C20.189 8.39392 21.2622 7.44461 22.3707 6.86676C23.4792 6.28892 24.6467 6 25.8731 6C27.9722 6 29.7352 6.71346 31.1621 8.14038C32.5891 9.5673 33.3025 11.3421 33.3025 13.4648C33.3025 16.1535 32.2294 18.7302 30.0831 21.1949C27.9368 23.6596 25.4014 26.2481 22.4768 28.9604L20.6018 30.694C20.2008 31.0713 19.7173 31.26 19.1513 31.26C18.5852 31.26 18.1017 31.0713 17.7008 30.694Z" fill="url(#paint0_linear_1_928)"/>
<path d="M17.7008 30.694L15.8257 28.9604C12.9011 26.2481 10.3657 23.6596 8.21941 21.1949C6.07314 18.7302 5 16.1535 5 13.4648C5 11.3421 5.71346 9.5673 7.14038 8.14038C8.5673 6.71346 10.3303 6 12.4294 6C13.6323 6 14.8233 6.28892 16.0026 6.86676C17.1819 7.44461 18.2314 8.39392 19.1513 9.71471C20.189 8.39392 21.2622 7.44461 22.3707 6.86676C23.4792 6.28892 24.6467 6 25.8731 6C27.9722 6 29.7352 6.71346 31.1621 8.14038C32.5891 9.5673 33.3025 11.3421 33.3025 13.4648C33.3025 16.1535 32.2294 18.7302 30.0831 21.1949C27.9368 23.6596 25.4014 26.2481 22.4768 28.9604L20.6018 30.694C20.2008 31.0713 19.7173 31.26 19.1513 31.26C18.5852 31.26 18.1017 31.0713 17.7008 30.694Z" fill="black" fill-opacity="0.7"/>
<defs>
<linearGradient id="paint0_linear_1_928" x1="11.1967" y1="6" x2="32.4549" y2="9.71715" gradientUnits="userSpaceOnUse">
<stop stop-color="#C28ECC"/>
<stop offset="1" stop-color="#94A2CC"/>
</linearGradient>
</defs>
</svg>
