<svg width="29" height="26" viewBox="0 0 29 26" fill="none" xmlns="http://www.w3.org/2000/svg">
<path d="M12.7008 24.694L10.8257 22.9604C7.90112 20.2481 5.36569 17.6596 3.21941 15.1949C1.07314 12.7302 0 10.1535 0 7.46479C0 5.3421 0.713459 3.5673 2.14038 2.14038C3.5673 0.713459 5.33031 0 7.42941 0C8.63227 0 9.82333 0.288922 11.0026 0.866765C12.1819 1.44461 13.2314 2.39392 14.1513 3.71471C15.189 2.39392 16.2622 1.44461 17.3707 0.866765C18.4792 0.288922 19.6467 0 20.8731 0C22.9722 0 24.7352 0.713459 26.1621 2.14038C27.5891 3.5673 28.3025 5.3421 28.3025 7.46479C28.3025 10.1535 27.2294 12.7302 25.0831 15.1949C22.9368 17.6596 20.4014 20.2481 17.4768 22.9604L15.6018 24.694C15.2008 25.0713 14.7173 25.26 14.1513 25.26C13.5852 25.26 13.1017 25.0713 12.7008 24.694Z" fill="url(#paint0_linear_1_929)"/>
<path d="M12.7008 24.694L10.8257 22.9604C7.90112 20.2481 5.36569 17.6596 3.21941 15.1949C1.07314 12.7302 0 10.1535 0 7.46479C0 5.3421 0.713459 3.5673 2.14038 2.14038C3.5673 0.713459 5.33031 0 7.42941 0C8.63227 0 9.82333 0.288922 11.0026 0.866765C12.1819 1.44461 13.2314 2.39392 14.1513 3.71471C15.189 2.39392 16.2622 1.44461 17.3707 0.866765C18.4792 0.288922 19.6467 0 20.8731 0C22.9722 0 24.7352 0.713459 26.1621 2.14038C27.5891 3.5673 28.3025 5.3421 28.3025 7.46479C28.3025 10.1535 27.2294 12.7302 25.0831 15.1949C22.9368 17.6596 20.4014 20.2481 17.4768 22.9604L15.6018 24.694C15.2008 25.0713 14.7173 25.26 14.1513 25.26C13.5852 25.26 13.1017 25.0713 12.7008 24.694Z" fill="black" fill-opacity="0.7"/>
<defs>
<linearGradient id="paint0_linear_1_929" x1="6.19667" y1="1.83416e-06" x2="27.4549" y2="3.71715" gradientUnits="userSpaceOnUse">
<stop stop-color="#C28ECC"/>
<stop offset="1" stop-color="#94A2CC"/>
</linearGradient>
</defs>
</svg>
