<svg width="32" height="32" viewBox="0 0 32 32" fill="none" xmlns="http://www.w3.org/2000/svg">
<path d="M5.78734 24.9061C7.44984 23.8505 9.09255 23.0523 10.7155 22.5113C12.3384 21.9703 14.0998 21.6998 15.9998 21.6998C17.8998 21.6998 19.6679 21.9703 21.304 22.5113C22.9401 23.0523 24.5894 23.8505 26.2519 24.9061C27.413 23.4811 28.2377 22.0429 28.7259 20.5915C29.2141 19.1401 29.4582 17.6096 29.4582 15.9998C29.4582 12.1735 28.1717 8.9738 25.5988 6.40088C23.0259 3.82796 19.8262 2.5415 15.9998 2.5415C12.1735 2.5415 8.9738 3.82796 6.40088 6.40088C3.82796 8.9738 2.5415 12.1735 2.5415 15.9998C2.5415 17.6096 2.7922 19.1401 3.29359 20.5915C3.79498 22.0429 4.62623 23.4811 5.78734 24.9061ZM15.9998 17.1873C14.4693 17.1873 13.1828 16.6662 12.1405 15.6238C11.0981 14.5814 10.5769 13.295 10.5769 11.7644C10.5769 10.2339 11.0981 8.94741 12.1405 7.90505C13.1828 6.86269 14.4693 6.34151 15.9998 6.34151C17.5304 6.34151 18.8169 6.86269 19.8592 7.90505C20.9016 8.94741 21.4228 10.2339 21.4228 11.7644C21.4228 13.295 20.9016 14.5814 19.8592 15.6238C18.8169 16.6662 17.5304 17.1873 15.9998 17.1873ZM15.9998 31.8332C13.7832 31.8332 11.7116 31.4176 9.78526 30.5863C7.85887 29.7551 6.18317 28.6203 4.75817 27.1821C3.33317 25.7439 2.21164 24.0617 1.39359 22.1353C0.575532 20.2089 0.166504 18.1505 0.166504 15.9603C0.166504 13.7964 0.582129 11.7512 1.41338 9.82484C2.24463 7.89845 3.37935 6.22276 4.81755 4.79776C6.25574 3.37276 7.93803 2.24463 9.86442 1.41338C11.7908 0.582129 13.8491 0.166504 16.0394 0.166504C18.2033 0.166504 20.2485 0.582129 22.1748 1.41338C24.1012 2.24463 25.7769 3.37276 27.2019 4.79776C28.6269 6.22276 29.7551 7.89845 30.5863 9.82484C31.4176 11.7512 31.8332 13.8096 31.8332 15.9998C31.8332 18.1637 31.4176 20.2089 30.5863 22.1353C29.7551 24.0617 28.6269 25.7439 27.2019 27.1821C25.7769 28.6203 24.1012 29.7551 22.1748 30.5863C20.2485 31.4176 18.1901 31.8332 15.9998 31.8332Z" fill="url(#paint0_linear_1_931)"/>
<path d="M5.78734 24.9061C7.44984 23.8505 9.09255 23.0523 10.7155 22.5113C12.3384 21.9703 14.0998 21.6998 15.9998 21.6998C17.8998 21.6998 19.6679 21.9703 21.304 22.5113C22.9401 23.0523 24.5894 23.8505 26.2519 24.9061C27.413 23.4811 28.2377 22.0429 28.7259 20.5915C29.2141 19.1401 29.4582 17.6096 29.4582 15.9998C29.4582 12.1735 28.1717 8.9738 25.5988 6.40088C23.0259 3.82796 19.8262 2.5415 15.9998 2.5415C12.1735 2.5415 8.9738 3.82796 6.40088 6.40088C3.82796 8.9738 2.5415 12.1735 2.5415 15.9998C2.5415 17.6096 2.7922 19.1401 3.29359 20.5915C3.79498 22.0429 4.62623 23.4811 5.78734 24.9061ZM15.9998 17.1873C14.4693 17.1873 13.1828 16.6662 12.1405 15.6238C11.0981 14.5814 10.5769 13.295 10.5769 11.7644C10.5769 10.2339 11.0981 8.94741 12.1405 7.90505C13.1828 6.86269 14.4693 6.34151 15.9998 6.34151C17.5304 6.34151 18.8169 6.86269 19.8592 7.90505C20.9016 8.94741 21.4228 10.2339 21.4228 11.7644C21.4228 13.295 20.9016 14.5814 19.8592 15.6238C18.8169 16.6662 17.5304 17.1873 15.9998 17.1873ZM15.9998 31.8332C13.7832 31.8332 11.7116 31.4176 9.78526 30.5863C7.85887 29.7551 6.18317 28.6203 4.75817 27.1821C3.33317 25.7439 2.21164 24.0617 1.39359 22.1353C0.575532 20.2089 0.166504 18.1505 0.166504 15.9603C0.166504 13.7964 0.582129 11.7512 1.41338 9.82484C2.24463 7.89845 3.37935 6.22276 4.81755 4.79776C6.25574 3.37276 7.93803 2.24463 9.86442 1.41338C11.7908 0.582129 13.8491 0.166504 16.0394 0.166504C18.2033 0.166504 20.2485 0.582129 22.1748 1.41338C24.1012 2.24463 25.7769 3.37276 27.2019 4.79776C28.6269 6.22276 29.7551 7.89845 30.5863 9.82484C31.4176 11.7512 31.8332 13.8096 31.8332 15.9998C31.8332 18.1637 31.4176 20.2089 30.5863 22.1353C29.7551 24.0617 28.6269 25.7439 27.2019 27.1821C25.7769 28.6203 24.1012 29.7551 22.1748 30.5863C20.2485 31.4176 18.1901 31.8332 15.9998 31.8332Z" fill="black" fill-opacity="0.7"/>
<defs>
<linearGradient id="paint0_linear_1_931" x1="7.09974" y1="0.166506" x2="31.0292" y2="3.90094" gradientUnits="userSpaceOnUse">
<stop stop-color="#C28ECC"/>
<stop offset="1" stop-color="#94A2CC"/>
</linearGradient>
</defs>
</svg>
