<svg width="24" height="24" viewBox="0 0 24 24" fill="none" xmlns="http://www.w3.org/2000/svg">
<path d="M21.1875 23.1097L13.7812 15.7035C13.1354 16.2452 12.375 16.6618 11.5 16.9535C10.625 17.2452 9.71875 17.391 8.78125 17.391C6.40625 17.391 4.40625 16.5785 2.78125 14.9535C1.15625 13.3285 0.34375 11.3493 0.34375 9.01599C0.34375 6.68266 1.15625 4.70349 2.78125 3.07849C4.40625 1.45349 6.38542 0.640991 8.71875 0.640991C11.0521 0.640991 13.0312 1.45349 14.6562 3.07849C16.2812 4.70349 17.0938 6.68266 17.0938 9.01599C17.0938 9.93266 16.9531 10.8129 16.6719 11.6566C16.3906 12.5004 15.9583 13.2972 15.375 14.0472L22.875 21.4847C23.1042 21.7139 23.2188 21.9847 23.2188 22.2972C23.2188 22.6097 23.0938 22.8806 22.8438 23.1097C22.6146 23.3389 22.3385 23.4535 22.0156 23.4535C21.6927 23.4535 21.4167 23.3389 21.1875 23.1097ZM8.75 15.1097C10.4375 15.1097 11.8698 14.516 13.0469 13.3285C14.224 12.141 14.8125 10.7035 14.8125 9.01599C14.8125 7.32849 14.224 5.89099 13.0469 4.70349C11.8698 3.51599 10.4375 2.92224 8.75 2.92224C7.02083 2.92224 5.56771 3.51599 4.39062 4.70349C3.21354 5.89099 2.625 7.32849 2.625 9.01599C2.625 10.7035 3.21354 12.141 4.39062 13.3285C5.56771 14.516 7.02083 15.1097 8.75 15.1097Z" fill="black"/>
</svg>
