<svg width="30" height="32" viewBox="0 0 30 32" fill="none" xmlns="http://www.w3.org/2000/svg">
<path d="M9.55846 31.002C8.87235 31.002 8.2852 30.7579 7.79701 30.2697C7.30881 29.7815 7.06471 29.1812 7.06471 28.4687C7.06471 27.7826 7.30881 27.1954 7.79701 26.7072C8.2852 26.219 8.88555 25.9749 9.59805 25.9749C10.2842 25.9749 10.8713 26.219 11.3595 26.7072C11.8477 27.1954 12.0918 27.7826 12.0918 28.4687C12.0918 29.1812 11.8477 29.7815 11.3595 30.2697C10.8713 30.7579 10.271 31.002 9.55846 31.002ZM24.798 31.002C24.1119 31.002 23.5248 30.7579 23.0366 30.2697C22.5484 29.7815 22.3043 29.1812 22.3043 28.4687C22.3043 27.7826 22.5484 27.1954 23.0366 26.7072C23.5248 26.219 24.1119 25.9749 24.798 25.9749C25.5105 25.9749 26.1109 26.219 26.5991 26.7072C27.0873 27.1954 27.3314 27.7826 27.3314 28.4687C27.3314 29.1812 27.0873 29.7815 26.5991 30.2697C26.1109 30.7579 25.5105 31.002 24.798 31.002ZM6.35221 3.76868H28.1626C28.8224 3.76868 29.3105 4.04577 29.6272 4.59994C29.9439 5.1541 29.9439 5.70827 29.6272 6.26243L24.798 15.0104C24.5605 15.4326 24.2307 15.7822 23.8085 16.0593C23.3862 16.3364 22.9508 16.4749 22.5022 16.4749H10.8647L8.64805 20.5124C8.56888 20.6444 8.56888 20.7829 8.64805 20.9281C8.72721 21.0732 8.84596 21.1458 9.0043 21.1458H27.3314V22.8479H9.28138C8.2786 22.8479 7.5661 22.5114 7.14388 21.8385C6.72166 21.1656 6.73485 20.4333 7.18346 19.6416L9.7168 15.0104L3.73971 2.38327H0.810547V0.641602H4.88763L6.35221 3.76868Z" fill="url(#paint0_linear_1_926)"/>
<path d="M9.55846 31.002C8.87235 31.002 8.2852 30.7579 7.79701 30.2697C7.30881 29.7815 7.06471 29.1812 7.06471 28.4687C7.06471 27.7826 7.30881 27.1954 7.79701 26.7072C8.2852 26.219 8.88555 25.9749 9.59805 25.9749C10.2842 25.9749 10.8713 26.219 11.3595 26.7072C11.8477 27.1954 12.0918 27.7826 12.0918 28.4687C12.0918 29.1812 11.8477 29.7815 11.3595 30.2697C10.8713 30.7579 10.271 31.002 9.55846 31.002ZM24.798 31.002C24.1119 31.002 23.5248 30.7579 23.0366 30.2697C22.5484 29.7815 22.3043 29.1812 22.3043 28.4687C22.3043 27.7826 22.5484 27.1954 23.0366 26.7072C23.5248 26.219 24.1119 25.9749 24.798 25.9749C25.5105 25.9749 26.1109 26.219 26.5991 26.7072C27.0873 27.1954 27.3314 27.7826 27.3314 28.4687C27.3314 29.1812 27.0873 29.7815 26.5991 30.2697C26.1109 30.7579 25.5105 31.002 24.798 31.002ZM6.35221 3.76868H28.1626C28.8224 3.76868 29.3105 4.04577 29.6272 4.59994C29.9439 5.1541 29.9439 5.70827 29.6272 6.26243L24.798 15.0104C24.5605 15.4326 24.2307 15.7822 23.8085 16.0593C23.3862 16.3364 22.9508 16.4749 22.5022 16.4749H10.8647L8.64805 20.5124C8.56888 20.6444 8.56888 20.7829 8.64805 20.9281C8.72721 21.0732 8.84596 21.1458 9.0043 21.1458H27.3314V22.8479H9.28138C8.2786 22.8479 7.5661 22.5114 7.14388 21.8385C6.72166 21.1656 6.73485 20.4333 7.18346 19.6416L9.7168 15.0104L3.73971 2.38327H0.810547V0.641602H4.88763L6.35221 3.76868Z" fill="black" fill-opacity="0.7"/>
<defs>
<linearGradient id="paint0_linear_1_926" x1="7.17179" y1="0.641604" x2="29.1711" y2="3.92711" gradientUnits="userSpaceOnUse">
<stop stop-color="#C28ECC"/>
<stop offset="1" stop-color="#94A2CC"/>
</linearGradient>
</defs>
</svg>
